<?xml version="1.0" encoding="UTF-8"?>
<!DOCTYPE svg PUBLIC "-//W3C//DTD SVG 1.1//EN" "http://www.w3.org/Graphics/SVG/1.1/DTD/svg11.dtd">
<!-- Creator: CorelDRAW X7 -->
<svg xmlns="http://www.w3.org/2000/svg" xml:space="preserve" width="11.1758mm" height="12.1918mm" version="1.1" style="shape-rendering:geometricPrecision; text-rendering:geometricPrecision; image-rendering:optimizeQuality; fill-rule:evenodd; clip-rule:evenodd"
viewBox="0 0 1118 1219"
 xmlns:xlink="http://www.w3.org/1999/xlink">
 <defs>
  <style type="text/css">
   <![CDATA[
    .fil0 {fill:#D01C22;fill-rule:nonzero}
   ]]>
  </style>
 </defs>
 <g id="Layer_x0020_1">
  <metadata id="CorelCorpID_0Corel-Layer"/>
  <path class="fil0" d="M1085 920l0 -20 0 -183 0 -98 0 -299 -245 123 -227 113c-1,-11 -6,-22 -13,-30l225 -112 209 -105 -423 0c2,-5 3,-11 3,-17 0,-6 -1,-11 -2,-16l427 0 -214 -106 -266 -133 -267 133 -214 106 428 0c-1,5 -2,10 -2,16 0,6 1,12 3,17l-423 0 208 105 226 112c-7,8 -12,19 -14,30l-226 -113 -246 -123 0 299 0 98 0 183 0 20 16 8 0 0 0 0 63 31 28 14 154 77 249 124 0 -558c6,1 11,2 17,2 6,0 11,-1 16,-2l0 558 250 -124 215 -108 0 0 29 -14 0 0 0 0 16 -8zm-510 -576l0 167c-5,-2 -10,-3 -16,-3 -6,0 -11,1 -17,3l0 -167c6,2 11,3 17,3 6,0 11,-1 16,-3zm-9 -340l274 136 130 65 29 15 113 56 0 0 6 3 0 25 0 264 0 80 0 40 0 215 0 37 -5 2 -28 14 -45 23 -200 100 -274 137 -7 3 -8 -3 -273 -137 -139 -69 -40 -21 -10 -5 -57 -28 -33 -16 0 -21 0 -266 0 -146 0 -42 0 -161 0 -25 6 -3 112 -55 29 -15 132 -66 273 -136 8 -4 7 4zm35 323l149 234 150 235c-11,3 -21,9 -28,17l-149 -234 -150 -234c11,-3 21,-10 28,-18zm261 538l-303 0 -303 0c2,-5 3,-11 3,-16 0,-6 -1,-12 -3,-17l303 0 303 0c-2,5 -3,11 -3,17 0,5 1,11 3,16zm-644 -69l149 -235 150 -234c7,8 16,15 27,18l-149 234 -149 234c-8,-8 -17,-14 -28,-17zm-14 -15c18,0 35,7 47,20l0 0c13,12 20,29 20,48 0,18 -7,35 -20,47l0 0c-12,13 -29,20 -47,20 -19,0 -36,-7 -48,-20l0 0c-13,-12 -20,-29 -20,-47 0,-19 7,-36 20,-48l0 0c12,-13 29,-20 48,-20zm29 38c-7,-8 -18,-13 -29,-13 -12,0 -23,5 -30,13 -8,7 -13,18 -13,30 0,11 5,22 13,29 7,8 18,13 30,13 11,0 22,-5 29,-13 8,-7 13,-18 13,-29 0,-12 -5,-23 -13,-30zm326 -324c18,0 35,8 48,20l0 0c12,13 20,29 20,48 0,19 -8,36 -20,48l0 0c-13,12 -30,20 -48,20 -19,0 -36,-8 -48,-20l0 0c-12,-12 -20,-29 -20,-48 0,-19 8,-35 20,-48l0 0c12,-12 29,-20 48,-20zm30 38c-8,-7 -19,-12 -30,-12 -12,0 -22,5 -30,12 -8,8 -12,18 -12,30 0,12 4,22 12,30 8,8 18,12 30,12 11,0 22,-4 30,-12 7,-8 12,-18 12,-30 0,-12 -5,-22 -12,-30zm325 248c19,0 36,7 48,20l0 0c12,12 20,29 20,48 0,18 -8,35 -20,47l0 0c-12,13 -29,20 -48,20 -19,0 -36,-7 -48,-20l0 0c-12,-12 -20,-29 -20,-47 0,-19 8,-36 20,-48l0 0c12,-13 29,-20 48,-20zm30 38c-8,-8 -18,-13 -30,-13 -12,0 -22,5 -30,13 -7,7 -12,18 -12,30 0,11 5,22 12,29 8,8 18,13 30,13 12,0 22,-5 30,-13 8,-7 12,-18 12,-29 0,-12 -4,-23 -12,-30zm-385 -595c18,0 35,7 48,20l0 0c12,12 20,29 20,48 0,18 -8,35 -20,47l0 0c-13,13 -30,20 -48,20 -19,0 -36,-7 -48,-20l0 0c-12,-12 -20,-29 -20,-47 0,-19 8,-36 20,-48l0 0c12,-13 29,-20 48,-20zm30 38c-8,-8 -19,-13 -30,-13 -12,0 -22,5 -30,13 -8,7 -12,18 -12,30 0,11 4,22 12,29 8,8 18,13 30,13 11,0 22,-5 30,-13 7,-7 12,-18 12,-29 0,-12 -5,-23 -12,-30z"/>
 </g>
</svg>
