<?xml version="1.0" encoding="UTF-8"?>
<!DOCTYPE svg PUBLIC "-//W3C//DTD SVG 1.1//EN" "http://www.w3.org/Graphics/SVG/1.1/DTD/svg11.dtd">
<!-- Creator: CorelDRAW X7 -->
<svg xmlns="http://www.w3.org/2000/svg" xml:space="preserve" width="12.1918mm" height="12.1918mm" version="1.1" style="shape-rendering:geometricPrecision; text-rendering:geometricPrecision; image-rendering:optimizeQuality; fill-rule:evenodd; clip-rule:evenodd"
viewBox="0 0 1219 1219"
 xmlns:xlink="http://www.w3.org/1999/xlink">
 <defs>
  <style type="text/css">
   <![CDATA[
    .fil1 {fill:#B5060C}
    .fil0 {fill:#D01C22}
    .fil2 {fill:#FEFEFE;fill-rule:nonzero}
   ]]>
  </style>
 </defs>
 <g id="Layer_x0020_1">
  <metadata id="CorelCorpID_0Corel-Layer"/>
  <g id="_921922880">
   <circle class="fil0" cx="610" cy="610" r="610"/>
   <path class="fil1" d="M853 1168c-74,33 -157,51 -243,51 -323,0 -586,-250 -608,-566l179 -297 4 -2 86 -43 22 -11 101 -50 210 -105 6 -3 5 3 210 105 99 49 23 12 87 43 0 0 4 2 0 19 0 203 0 61 0 30 0 166 0 28 -185 305z"/>
   <g>
    <path class="fil2" d="M1012 846l0 -15 0 -140 0 -75 0 -227 -188 93 -173 87c-1,-9 -5,-17 -10,-23l172 -86 159 -80 -323 0c2,-4 3,-8 3,-13 0,-4 -1,-8 -2,-12l326 0 -163 -81 -203 -102 -204 102 -163 81 326 0c-1,4 -1,8 -1,12 0,5 0,9 2,13l-323 0 159 80 172 86c-5,6 -9,14 -10,23l-173 -87 -187 -93 0 227 0 75 0 140 0 15 12 6 0 0 0 0 48 24 21 11 117 59 191 95 0 -427c4,1 8,2 13,2 4,0 8,-1 12,-2l0 427 191 -95 164 -83 0 0 22 -11 0 0 0 0 13 -6zm-390 -439l0 127c-4,-1 -8,-2 -12,-2 -5,0 -9,1 -13,2l0 -127c4,1 8,2 13,2 4,0 8,-1 12,-2zm-7 -260l209 104 99 50 22 11 87 43 0 0 5 3 0 18 0 202 0 61 0 30 0 165 0 28 -4 1 -21 11 -35 17 -153 77 -209 104 -5 3 -6 -3 -209 -104 -106 -53 -31 -16 -7 -3 -43 -22 -25 -12 0 -16 0 -203 0 -111 0 -33 0 -123 0 -18 4 -3 85 -42 22 -11 101 -51 209 -104 6 -3 5 3z"/>
    <path class="fil2" d="M642 394l114 179 114 179c-9,2 -16,7 -21,13l-114 -179 -114 -179c8,-2 15,-7 21,-13zm199 411l-231 0 -231 0c1,-4 1,-9 1,-13 0,-4 0,-9 -1,-12l231 0 231 0c-2,3 -2,8 -2,12 0,4 0,9 2,13zm-492 -53l114 -179 115 -179c5,6 12,11 21,13l-114 179 -115 179c-5,-6 -12,-11 -21,-13z"/>
    <path class="fil2" d="M338 740c15,0 28,6 37,15l0 1c9,9 15,22 15,36 0,14 -6,27 -15,37l0 0c-9,9 -22,15 -37,15 -14,0 -27,-6 -36,-15l0 0c-10,-10 -15,-23 -15,-37 0,-14 5,-27 15,-36l0 -1c9,-9 22,-15 36,-15zm23 29c-6,-6 -14,-9 -23,-9 -8,0 -17,3 -22,9 -6,6 -10,14 -10,23 0,9 4,17 10,23 5,6 14,9 22,9 9,0 17,-3 23,-9 6,-6 10,-14 10,-23 0,-9 -4,-17 -10,-23z"/>
    <path class="fil2" d="M610 522c14,0 27,6 36,16l0 0c10,9 15,22 15,36 0,14 -5,27 -15,37l0 0c-9,9 -22,15 -36,15 -15,0 -28,-6 -37,-15l0 0c-9,-10 -15,-23 -15,-37 0,-14 6,-27 15,-36l0 0c9,-10 22,-16 37,-16zm22 29c-5,-6 -13,-9 -22,-9 -9,0 -17,3 -23,9 -6,6 -10,14 -10,23 0,9 4,17 10,23 6,6 14,9 23,9 9,0 17,-3 22,-9 6,-6 10,-14 10,-23 0,-9 -4,-17 -10,-23z"/>
    <path class="fil2" d="M881 740c14,0 27,6 36,15l0 1c10,9 15,22 15,36 0,14 -5,27 -15,37l0 0c-9,9 -22,15 -36,15 -14,0 -27,-6 -37,-15l0 0c-9,-10 -15,-23 -15,-37 0,-14 6,-27 15,-36l0 -1c10,-9 23,-15 37,-15zm23 29c-6,-6 -14,-9 -23,-9 -9,0 -17,3 -23,9 -6,6 -9,14 -9,23 0,9 3,17 9,23 6,6 14,9 23,9 9,0 17,-3 23,-9 5,-6 9,-14 9,-23 0,-9 -4,-17 -9,-23z"/>
    <path class="fil2" d="M610 315c14,0 27,6 36,15l0 0c10,10 15,23 15,37 0,14 -5,27 -15,36l0 0c-9,10 -22,16 -36,16 -15,0 -28,-6 -37,-16l0 0c-9,-9 -15,-22 -15,-36 0,-14 6,-27 15,-37l0 0c9,-9 22,-15 37,-15zm22 29c-5,-6 -13,-9 -22,-9 -9,0 -17,3 -23,9 -6,6 -10,14 -10,23 0,9 4,17 10,23 6,5 14,9 23,9 9,0 17,-4 22,-9 6,-6 10,-14 10,-23 0,-9 -4,-17 -10,-23z"/>
   </g>
  </g>
 </g>
</svg>
