<?xml version="1.0" encoding="UTF-8"?>
<!DOCTYPE svg PUBLIC "-//W3C//DTD SVG 1.1//EN" "http://www.w3.org/Graphics/SVG/1.1/DTD/svg11.dtd">
<!-- Creator: CorelDRAW X7 -->
<svg xmlns="http://www.w3.org/2000/svg" xml:space="preserve" width="21.6746mm" height="21.6746mm" version="1.1" style="shape-rendering:geometricPrecision; text-rendering:geometricPrecision; image-rendering:optimizeQuality; fill-rule:evenodd; clip-rule:evenodd"
viewBox="0 0 2167 2167"
 xmlns:xlink="http://www.w3.org/1999/xlink">
 <defs>
  <style type="text/css">
   <![CDATA[
    .fil1 {fill:#B5060C}
    .fil0 {fill:#D01C22}
    .fil2 {fill:#FEFEFE;fill-rule:nonzero}
   ]]>
  </style>
 </defs>
 <g id="Layer_x0020_1">
  <metadata id="CorelCorpID_0Corel-Layer"/>
  <g id="_921910208">
   <rect class="fil0" width="2167" height="2167" rx="283" ry="283"/>
   <path class="fil1" d="M1465 2167l-1182 0c-156,0 -283,-127 -283,-282l0 -718 321 -534 8 -4 152 -76 40 -20 180 -90 373 -186 10 -5 10 5 372 186 178 89 39 20 155 77 0 0 8 4 0 33 0 361 0 109 0 54 0 294 0 50 -381 633z"/>
   <g>
    <path class="fil2" d="M1799 1505l0 -27 0 -249 0 -133 0 -405 -334 166 -307 154c-2,-16 -9,-30 -19,-40l306 -153 284 -142 -575 0c3,-8 4,-16 4,-24 0,-7 -1,-14 -2,-21l580 0 -291 -145 -361 -180 -362 180 -291 145 581 0c-2,7 -3,14 -3,21 0,8 1,16 4,24l-575 0 284 142 306 153c-10,11 -16,25 -18,40l-308 -154 -333 -166 0 405 0 133 0 249 0 27 21 11 0 0 0 0 86 42 38 19 208 104 339 170 0 -759c7,2 15,3 23,3 7,0 15,-1 22,-3l0 759 339 -170 292 -146 0 0 40 -19 0 0 0 0 22 -11zm-693 -782l0 226c-7,-2 -15,-3 -22,-3 -8,0 -16,1 -23,3l0 -226c7,2 15,4 23,4 7,0 15,-2 22,-4zm-12 -462l371 186 176 88 40 20 154 76 0 0 8 5 0 32 0 359 0 108 0 55 0 292 0 50 -6 3 -38 19 -62 31 -272 136 -371 185 -10 5 -10 -5 -372 -185 -188 -94 -55 -28 -14 -6 -76 -39 -45 -22 0 -28 0 -361 0 -198 0 -58 0 -219 0 -33 8 -4 151 -75 40 -20 179 -89 372 -186 10 -5 10 5z"/>
    <path class="fil2" d="M1141 700l203 318 203 318c-15,4 -28,13 -38,24l-203 -318 -203 -318c15,-4 28,-13 38,-24zm354 731l-411 0 -411 0c2,-8 3,-15 3,-23 0,-7 -1,-15 -3,-22l411 0 411 0c-2,7 -4,15 -4,22 0,8 2,15 4,23zm-874 -95l203 -318 203 -318c9,11 22,20 37,24l-203 318 -203 318c-9,-11 -22,-20 -37,-24z"/>
    <path class="fil2" d="M601 1316c26,0 49,11 65,27l0 0c17,17 27,40 27,65 0,26 -10,49 -27,65l0 0c-16,17 -39,27 -65,27 -25,0 -48,-10 -65,-27l0 0c-16,-16 -27,-39 -27,-65 0,-25 11,-48 27,-65l0 0c17,-16 40,-27 65,-27zm41 52c-10,-11 -25,-17 -41,-17 -16,0 -30,6 -40,17 -11,10 -17,24 -17,40 0,16 6,30 17,41 10,10 24,17 40,17 16,0 31,-7 41,-17 10,-11 17,-25 17,-41 0,-16 -7,-30 -17,-40z"/>
    <path class="fil2" d="M1084 929c25,0 48,10 65,27l0 0c16,16 27,39 27,65 0,25 -11,48 -27,65l0 0c-17,16 -40,27 -65,27 -26,0 -49,-11 -65,-27l0 0c-17,-17 -27,-40 -27,-65 0,-26 10,-49 27,-65l0 0c16,-17 39,-27 65,-27zm40 51c-10,-10 -24,-17 -40,-17 -16,0 -30,7 -41,17 -10,10 -17,25 -17,41 0,15 7,30 17,40 11,11 25,17 41,17 16,0 30,-6 40,-17 11,-10 17,-25 17,-40 0,-16 -6,-31 -17,-41z"/>
    <path class="fil2" d="M1566 1316c25,0 48,11 65,27l0 0c17,17 27,40 27,65 0,26 -10,49 -27,65l0 0c-17,17 -40,27 -65,27 -25,0 -48,-10 -65,-27l0 0c-17,-16 -27,-39 -27,-65 0,-25 10,-48 27,-65l0 0c17,-16 40,-27 65,-27zm41 52c-11,-11 -25,-17 -41,-17 -16,0 -30,6 -40,17 -11,10 -17,24 -17,40 0,16 6,30 17,41 10,10 24,17 40,17 16,0 30,-7 41,-17 10,-11 16,-25 16,-41 0,-16 -6,-30 -16,-40z"/>
    <path class="fil2" d="M1084 560c25,0 48,10 65,27l0 0c16,17 27,40 27,65 0,25 -11,48 -27,65l0 0c-17,17 -40,27 -65,27 -26,0 -49,-10 -65,-27l0 0c-17,-17 -27,-40 -27,-65 0,-25 10,-48 27,-65l0 0c16,-17 39,-27 65,-27zm40 51c-10,-10 -24,-16 -40,-16 -16,0 -30,6 -41,16 -10,11 -17,25 -17,41 0,16 7,30 17,41 11,10 25,16 41,16 16,0 30,-6 40,-16 11,-11 17,-25 17,-41 0,-16 -6,-30 -17,-41z"/>
   </g>
  </g>
 </g>
</svg>
