<?xml version="1.0" encoding="UTF-8"?>
<!DOCTYPE svg PUBLIC "-//W3C//DTD SVG 1.1//EN" "http://www.w3.org/Graphics/SVG/1.1/DTD/svg11.dtd">
<!-- Creator: CorelDRAW X7 -->
<svg xmlns="http://www.w3.org/2000/svg" xml:space="preserve" width="21.6746mm" height="21.6746mm" version="1.1" style="shape-rendering:geometricPrecision; text-rendering:geometricPrecision; image-rendering:optimizeQuality; fill-rule:evenodd; clip-rule:evenodd"
viewBox="0 0 2167 2167"
 xmlns:xlink="http://www.w3.org/1999/xlink">
 <defs>
  <style type="text/css">
   <![CDATA[
    .fil0 {fill:#1D1819}
    .fil1 {fill:#FEFEFE;fill-rule:nonzero}
   ]]>
  </style>
 </defs>
 <g id="Layer_x0020_1">
  <metadata id="CorelCorpID_0Corel-Layer"/>
  <g id="_921920128">
   <circle class="fil0" cx="1084" cy="1084" r="1084"/>
   <g>
    <path class="fil1" d="M1798 1504l0 -26 0 -249 0 -133 0 -405 -333 166 -307 154c-2,-16 -9,-29 -19,-40l306 -153 283 -142 -574 0c3,-7 4,-15 4,-24 0,-7 -1,-14 -2,-20l579 0 -290 -145 -361 -181 -362 181 -290 145 580 0c-2,6 -3,13 -3,20 0,9 1,17 4,24l-574 0 283 142 306 153c-10,11 -16,25 -18,40l-308 -154 -333 -166 0 405 0 133 0 249 0 26 22 11 0 0 0 0 85 43 39 19 207 104 339 169 0 -758c7,2 15,3 23,3 7,0 15,-1 22,-3l0 758 339 -169 292 -146 0 0 40 -20 0 0 0 0 21 -11zm-692 -781l0 226c-7,-2 -15,-3 -22,-3 -8,0 -16,1 -23,3l0 -226c7,3 15,4 23,4 7,0 15,-1 22,-4zm-12 -462l371 186 176 88 40 20 154 77 0 0 8 4 0 33 0 358 0 108 0 54 0 293 0 50 -7 3 -38 19 -61 31 -272 136 -371 185 -10 5 -10 -5 -371 -185 -188 -94 -56 -28 -13 -7 -77 -38 -44 -22 0 -29 0 -360 0 -198 0 -57 0 -219 0 -33 8 -4 151 -76 39 -20 179 -89 372 -186 10 -4 10 4z"/>
    <path class="fil1" d="M1141 700l202 318 203 318c-15,4 -28,13 -37,24l-203 -318 -203 -318c15,-4 28,-12 38,-24zm354 730l-411 0 -411 0c2,-7 3,-14 3,-22 0,-8 -1,-15 -3,-22l411 0 411 0c-3,7 -4,14 -4,22 0,8 1,15 4,22zm-874 -94l203 -318 203 -318c9,12 22,20 37,24l-203 318 -202 318c-10,-11 -23,-20 -38,-24z"/>
    <path class="fil1" d="M602 1316c25,0 48,11 65,27l0 0c16,17 27,40 27,65 0,25 -11,48 -27,65l0 0c-17,17 -40,27 -65,27 -26,0 -49,-10 -65,-27l0 0c-17,-17 -27,-40 -27,-65 0,-25 10,-48 27,-65l0 0c16,-16 39,-27 65,-27zm40 52c-10,-11 -24,-17 -40,-17 -16,0 -31,6 -41,17 -10,10 -17,24 -17,40 0,16 7,30 17,41 10,10 25,16 41,16 16,0 30,-6 40,-16 11,-11 17,-25 17,-41 0,-16 -6,-30 -17,-40z"/>
    <path class="fil1" d="M1084 929c25,0 48,10 65,27l0 0c16,16 27,39 27,65 0,25 -11,48 -27,65l0 0c-17,16 -40,27 -65,27 -26,0 -49,-11 -65,-27l0 0c-17,-17 -27,-40 -27,-65 0,-26 10,-49 27,-65l0 0c16,-17 39,-27 65,-27zm40 51c-10,-10 -24,-17 -40,-17 -16,0 -30,7 -41,17 -10,10 -17,25 -17,41 0,15 7,30 17,40 11,11 25,17 41,17 16,0 30,-6 40,-17 11,-10 17,-25 17,-40 0,-16 -6,-31 -17,-41z"/>
    <path class="fil1" d="M1566 1316c25,0 48,11 65,27l0 0c16,17 27,40 27,65 0,25 -11,48 -27,65l0 0c-17,17 -40,27 -65,27 -26,0 -48,-10 -65,-27l0 0c-17,-17 -27,-40 -27,-65 0,-25 10,-48 27,-65l0 0c17,-16 39,-27 65,-27zm40 52c-10,-11 -24,-17 -40,-17 -16,0 -30,6 -41,17 -10,10 -16,24 -16,40 0,16 6,30 16,41 11,10 25,16 41,16 16,0 30,-6 40,-16 11,-11 17,-25 17,-41 0,-16 -6,-30 -17,-40z"/>
    <path class="fil1" d="M1084 560c25,0 48,11 65,27l0 0c16,17 27,40 27,65 0,26 -11,48 -27,65l0 0c-17,17 -40,27 -65,27 -26,0 -49,-10 -65,-27l0 0c-17,-17 -27,-39 -27,-65 0,-25 10,-48 27,-65l0 0c16,-16 39,-27 65,-27zm40 52c-10,-11 -24,-17 -40,-17 -16,0 -30,6 -41,17 -10,10 -17,24 -17,40 0,16 7,30 17,41 11,10 25,16 41,16 16,0 30,-6 40,-16 11,-11 17,-25 17,-41 0,-16 -6,-30 -17,-40z"/>
   </g>
  </g>
 </g>
</svg>
