<?xml version="1.0" encoding="UTF-8"?>
<!DOCTYPE svg PUBLIC "-//W3C//DTD SVG 1.1//EN" "http://www.w3.org/Graphics/SVG/1.1/DTD/svg11.dtd">
<!-- Creator: CorelDRAW X7 -->
<svg xmlns="http://www.w3.org/2000/svg" xml:space="preserve" width="39.7932mm" height="43.3492mm" version="1.1" style="shape-rendering:geometricPrecision; text-rendering:geometricPrecision; image-rendering:optimizeQuality; fill-rule:evenodd; clip-rule:evenodd"
viewBox="0 0 3979 4335"
 xmlns:xlink="http://www.w3.org/1999/xlink">
 <defs>
  <style type="text/css">
   <![CDATA[
    .fil0 {fill:#D01C22;fill-rule:nonzero}
   ]]>
  </style>
 </defs>
 <g id="Layer_x0020_1">
  <metadata id="CorelCorpID_0Corel-Layer"/>
  <path class="fil0" d="M3862 3270l0 -69 0 -653 0 -348 0 -1062 -874 437 -804 401c-6,-40 -23,-76 -49,-105l801 -400 743 -371 -1504 0c7,-20 10,-41 10,-63 0,-19 -2,-37 -7,-54l1519 0 -761 -380 -947 -473 -946 473 -762 380 1521 0c-5,17 -8,35 -8,54 0,22 4,43 10,63l-1504 0 743 371 801 400c-25,29 -43,65 -48,106l-805 -402 -874 -437 0 1062 0 348 0 652 0 70 57 28 0 0 0 0 225 112 99 50 545 272 888 444 0 -1987c19,5 38,9 59,9 20,0 40,-4 58,-9l0 1987 888 -444 765 -382 0 0 104 -52 0 0 0 0 57 -28zm-1814 -2047l0 593c-18,-6 -38,-9 -58,-9 -21,0 -40,3 -59,9l0 -593c19,6 38,9 59,9 20,0 40,-3 58,-9zm-33 -1210l973 486 462 231 104 52 403 201 0 0 22 11 0 86 0 939 0 284 0 141 0 768 0 129 -18 9 -99 50 -161 80 -713 356 -972 486 -26 13 -26 -13 -973 -486 -493 -246 -145 -73 -35 -17 -201 -100 -116 -59 0 -74 0 -944 0 -519 0 -150 0 -574 0 -87 21 -10 395 -198 104 -52 470 -234 972 -486 26 -13 26 13zm124 1150l531 833 532 833c-39,10 -73,32 -98,62l-532 -833 -531 -833c39,-10 73,-32 98,-62zm927 1913l-1076 0 -1077 0c6,-19 9,-38 9,-59 0,-20 -3,-40 -9,-58l1077 0 1076 0c-6,18 -9,38 -9,58 0,21 3,40 9,59zm-2288 -247l531 -833 531 -833c26,30 60,52 98,62l-531 833 -531 833c-25,-30 -59,-52 -98,-62zm-52 -52c67,0 127,27 171,70l0 0c43,44 70,104 70,170 0,67 -27,127 -70,170l0 1c-44,43 -104,70 -171,70 -66,0 -126,-27 -170,-70l0 -1c-44,-43 -71,-103 -71,-170 0,-66 27,-126 71,-170l0 0c44,-43 104,-70 170,-70zm107 134c-27,-27 -65,-44 -107,-44 -41,0 -79,17 -106,44 -27,27 -44,65 -44,106 0,42 17,79 44,107 27,27 65,43 106,43 42,0 80,-16 107,-43 27,-28 44,-65 44,-107 0,-41 -17,-79 -44,-106zm1157 -1150c66,0 126,27 170,71l0 0c44,44 71,104 71,170 0,66 -27,127 -71,170l0 0c-44,44 -104,71 -170,71 -67,0 -127,-27 -171,-71l0 0c-43,-43 -70,-104 -70,-170 0,-66 27,-126 70,-170l0 0c44,-44 104,-71 171,-71zm106 135c-27,-27 -65,-44 -106,-44 -42,0 -79,17 -107,44 -27,27 -44,65 -44,106 0,42 17,79 44,106 28,27 65,44 107,44 41,0 79,-17 106,-44 27,-27 44,-64 44,-106 0,-41 -17,-79 -44,-106zm1157 881c66,0 126,27 170,70l0 0c44,44 71,104 71,170 0,67 -27,127 -71,170l0 1c-44,43 -104,70 -170,70 -66,0 -127,-27 -170,-70l0 -1c-44,-43 -71,-103 -71,-170 0,-66 27,-126 71,-170l0 0c43,-43 104,-70 170,-70zm106 134c-27,-27 -65,-44 -106,-44 -42,0 -79,17 -106,44 -27,27 -44,65 -44,106 0,42 17,79 44,107 27,27 64,43 106,43 41,0 79,-16 106,-43 27,-28 44,-65 44,-107 0,-41 -17,-79 -44,-106zm-1369 -2115c66,0 126,27 170,70l0 1c44,43 71,103 71,170 0,66 -27,126 -71,170l0 0c-44,43 -104,70 -170,70 -67,0 -127,-27 -171,-70l0 0c-43,-44 -70,-104 -70,-170 0,-67 27,-127 70,-170l0 -1c44,-43 104,-70 171,-70zm106 135c-27,-28 -65,-44 -106,-44 -42,0 -79,16 -107,44 -27,27 -44,64 -44,106 0,41 17,79 44,106 28,27 65,44 107,44 41,0 79,-17 106,-44 27,-27 44,-65 44,-106 0,-42 -17,-79 -44,-106z"/>
 </g>
</svg>
