<?xml version="1.0" encoding="UTF-8"?>
<!DOCTYPE svg PUBLIC "-//W3C//DTD SVG 1.1//EN" "http://www.w3.org/Graphics/SVG/1.1/DTD/svg11.dtd">
<!-- Creator: CorelDRAW X7 -->
<svg xmlns="http://www.w3.org/2000/svg" xml:space="preserve" width="43.3492mm" height="43.3492mm" version="1.1" style="shape-rendering:geometricPrecision; text-rendering:geometricPrecision; image-rendering:optimizeQuality; fill-rule:evenodd; clip-rule:evenodd"
viewBox="0 0 4335 4335"
 xmlns:xlink="http://www.w3.org/1999/xlink">
 <defs>
  <style type="text/css">
   <![CDATA[
    .fil1 {fill:#B5060C}
    .fil0 {fill:#D01C22}
    .fil2 {fill:#FEFEFE;fill-rule:nonzero}
   ]]>
  </style>
 </defs>
 <g id="Layer_x0020_1">
  <metadata id="CorelCorpID_0Corel-Layer"/>
  <g id="_895531552">
   <rect class="fil0" width="4335" height="4335" rx="565" ry="565"/>
   <path class="fil1" d="M2930 4335l-2365 0c-311,0 -565,-254 -565,-565l0 -1436 642 -1068 16 -8 304 -151 80 -40 359 -180 746 -373 20 -10 20 10 746 373 354 177 80 40 309 154 0 0 16 9 0 66 0 720 0 218 0 109 0 589 0 99 -762 1267z"/>
   <g>
    <path class="fil2" d="M3597 3009l0 -52 0 -499 0 -266 0 -811 -667 334 -614 307c-5,-31 -18,-59 -38,-81l612 -306 568 -283 -1149 0c5,-15 8,-31 8,-48 0,-14 -2,-28 -6,-41l1161 0 -582 -291 -723 -361 -723 361 -581 291 1161 0c-4,13 -6,27 -6,41 0,17 3,33 8,48l-1149 0 567 283 613 306c-20,22 -34,50 -38,81l-615 -307 -666 -333 0 810 0 266 0 498 0 53 43 22 0 0 0 0 171 86 77 38 415 208 679 338 0 -1517c14,4 29,6 44,6 16,0 31,-2 45,-6l0 1517 679 -339 584 -291 0 0 79 -40 0 0 0 0 43 -22zm-1385 -1563l0 453c-14,-5 -29,-7 -45,-7 -15,0 -30,2 -44,7l0 -453c14,5 29,7 44,7 16,0 31,-2 45,-7zm-25 -924l743 371 353 176 79 40 308 154 0 0 16 8 0 66 0 717 0 217 0 108 0 586 0 99 -13 7 -76 38 -122 61 -545 272 -743 371 -20 10 -19 -10 -743 -371 -376 -188 -111 -56 -27 -13 -153 -76 -90 -45 0 -57 0 -721 0 -396 0 -115 0 -438 0 -66 16 -8 303 -151 79 -40 358 -179 743 -371 20 -10 20 10z"/>
    <path class="fil2" d="M2282 1400l405 636 406 637c-30,8 -56,24 -75,47l-406 -636 -405 -636c29,-8 55,-25 75,-48zm708 1461l-823 0 -822 0c5,-14 7,-29 7,-44 0,-16 -2,-31 -7,-45l822 0 823 0c-5,14 -7,29 -7,45 0,15 2,30 7,44zm-1748 -188l406 -637 405 -636c20,23 46,40 75,48l-405 636 -406 636c-19,-23 -45,-39 -75,-47z"/>
    <path class="fil2" d="M1203 2633c50,0 96,20 130,54l0 0c33,33 54,79 54,130 0,50 -21,96 -54,129l0 1c-34,33 -80,53 -130,53 -51,0 -97,-20 -130,-53l0 -1c-34,-33 -54,-79 -54,-129 0,-51 20,-97 54,-130l0 0c33,-34 79,-54 130,-54zm81 102c-21,-20 -50,-33 -81,-33 -32,0 -61,13 -81,33 -21,21 -34,50 -34,82 0,31 13,60 34,81 20,20 49,33 81,33 31,0 60,-13 81,-33 21,-21 33,-50 33,-81 0,-32 -12,-61 -33,-82z"/>
    <path class="fil2" d="M2167 1857c51,0 97,21 130,54l1 0c33,34 53,80 53,130 0,51 -20,97 -53,130l-1 0c-33,33 -79,54 -130,54 -50,0 -96,-21 -130,-54l0 0c-33,-33 -54,-79 -54,-130 0,-50 21,-96 54,-130l0 0c34,-33 80,-54 130,-54zm82 103c-21,-21 -50,-33 -82,-33 -31,0 -60,12 -81,33 -20,21 -33,50 -33,81 0,32 13,61 33,81 21,21 50,34 81,34 32,0 61,-13 82,-34 20,-20 33,-49 33,-81 0,-31 -13,-60 -33,-81z"/>
    <path class="fil2" d="M3132 2633c51,0 97,20 130,54l0 0c34,33 54,79 54,130 0,50 -20,96 -54,129l0 1c-33,33 -79,53 -130,53 -50,0 -96,-20 -130,-53l0 -1c-33,-33 -54,-79 -54,-129 0,-51 21,-97 54,-130l0 0c34,-34 80,-54 130,-54zm81 102c-20,-20 -49,-33 -81,-33 -32,0 -60,13 -81,33 -21,21 -33,50 -33,82 0,31 12,60 33,81 21,20 49,33 81,33 32,0 61,-13 81,-33 21,-21 34,-50 34,-81 0,-32 -13,-61 -34,-82z"/>
    <path class="fil2" d="M2167 1120c51,0 97,21 130,54l1 0c33,33 53,79 53,130 0,51 -20,97 -53,130l-1 0c-33,33 -79,54 -130,54 -50,0 -96,-21 -130,-54l0 0c-33,-33 -54,-79 -54,-130 0,-51 21,-97 54,-130l0 0c34,-33 80,-54 130,-54zm82 103c-21,-21 -50,-34 -82,-34 -31,0 -60,13 -81,34 -20,21 -33,49 -33,81 0,32 13,60 33,81 21,21 50,33 81,33 32,0 61,-12 82,-33 20,-21 33,-49 33,-81 0,-32 -13,-60 -33,-81z"/>
   </g>
  </g>
 </g>
</svg>
