<?xml version="1.0" encoding="UTF-8"?>
<!DOCTYPE svg PUBLIC "-//W3C//DTD SVG 1.1//EN" "http://www.w3.org/Graphics/SVG/1.1/DTD/svg11.dtd">
<!-- Creator: CorelDRAW X7 -->
<svg xmlns="http://www.w3.org/2000/svg" xml:space="preserve" width="43.3492mm" height="43.3492mm" version="1.1" style="shape-rendering:geometricPrecision; text-rendering:geometricPrecision; image-rendering:optimizeQuality; fill-rule:evenodd; clip-rule:evenodd"
viewBox="0 0 4335 4335"
 xmlns:xlink="http://www.w3.org/1999/xlink">
 <defs>
  <style type="text/css">
   <![CDATA[
    .fil0 {fill:#011B44}
    .fil1 {fill:#FEFEFE;fill-rule:nonzero}
   ]]>
  </style>
 </defs>
 <g id="Layer_x0020_1">
  <metadata id="CorelCorpID_0Corel-Layer"/>
  <g id="_815799904">
   <circle class="fil0" cx="2167" cy="2167" r="2167"/>
   <g>
    <path class="fil1" d="M3596 3009l0 -53 0 -498 0 -266 0 -810 -667 333 -614 307c-4,-31 -17,-59 -37,-81l612 -305 567 -284 -1148 0c5,-15 8,-31 8,-48 0,-14 -2,-28 -6,-41l1160 0 -581 -290 -723 -361 -722 361 -581 290 1160 0c-4,13 -6,27 -6,41 0,17 3,33 8,48l-1148 0 567 284 612 305c-20,22 -34,50 -38,81l-614 -307 -667 -333 0 810 0 266 0 498 0 53 44 22 0 0 0 0 171 85 76 38 416 208 678 339 0 -1517c14,4 29,6 44,6 16,0 31,-2 45,-6l0 1517 678 -339 584 -292 0 0 79 -39 0 0 0 0 43 -22zm-1384 -1562l0 452c-14,-4 -29,-7 -45,-7 -15,0 -30,3 -44,7l0 -452c14,4 29,7 44,7 16,0 31,-3 45,-7zm-25 -924l742 371 353 176 79 40 308 153 0 0 17 9 0 65 0 717 0 217 0 108 0 585 0 100 -14 6 -76 38 -122 61 -544 272 -743 371 -20 10 -19 -10 -743 -371 -376 -188 -111 -55 -27 -14 -153 -76 -89 -44 0 -57 0 -721 0 -396 0 -115 0 -438 0 -66 16 -8 302 -151 80 -39 358 -179 742 -371 20 -10 20 10z"/>
    <path class="fil1" d="M2281 1401l406 635 405 636c-29,8 -55,25 -74,48l-406 -636 -405 -636c29,-8 55,-25 74,-47zm708 1460l-822 0 -821 0c4,-14 7,-29 7,-45 0,-15 -3,-30 -7,-44l821 0 822 0c-4,14 -7,29 -7,44 0,16 3,31 7,45zm-1746 -189l405 -636 405 -635c20,22 46,39 75,47l-405 636 -406 636c-19,-23 -45,-40 -74,-48z"/>
    <path class="fil1" d="M1203 2632c51,0 97,21 130,54l0 0c34,34 54,80 54,130 0,51 -20,97 -54,130l0 0c-33,33 -79,54 -130,54 -50,0 -96,-21 -130,-54l0 0c-33,-33 -54,-79 -54,-130 0,-50 21,-96 54,-130l0 0c34,-33 80,-54 130,-54zm81 103c-20,-21 -49,-33 -81,-33 -31,0 -60,12 -81,33 -21,21 -33,49 -33,81 0,32 12,61 33,81 21,21 50,34 81,34 32,0 61,-13 81,-34 21,-20 34,-49 34,-81 0,-32 -13,-60 -34,-81z"/>
    <path class="fil1" d="M2167 1858c51,0 97,20 130,53l1 0c33,34 53,80 53,130 0,51 -20,97 -53,130l-1 0c-33,33 -79,54 -130,54 -50,0 -96,-21 -129,-54l-1 0c-33,-33 -53,-79 -53,-130 0,-50 20,-96 53,-130l1 0c33,-33 79,-53 129,-53zm82 102c-21,-20 -50,-33 -82,-33 -31,0 -60,13 -81,33 -20,21 -33,50 -33,81 0,32 13,61 33,81 21,21 50,34 81,34 32,0 61,-13 82,-34 20,-20 33,-49 33,-81 0,-31 -13,-60 -33,-81z"/>
    <path class="fil1" d="M3132 2632c50,0 96,21 130,54l0 0c33,34 54,80 54,130 0,51 -21,97 -54,130l0 0c-34,33 -80,54 -130,54 -51,0 -97,-21 -130,-54l0 0c-34,-33 -54,-79 -54,-130 0,-50 20,-96 54,-130l0 0c33,-33 79,-54 130,-54zm81 103c-21,-21 -50,-33 -81,-33 -32,0 -61,12 -81,33 -21,21 -34,49 -34,81 0,32 13,61 34,81 20,21 49,34 81,34 31,0 60,-13 81,-34 20,-20 33,-49 33,-81 0,-32 -13,-60 -33,-81z"/>
    <path class="fil1" d="M2167 1121c51,0 97,20 130,53l1 1c33,33 53,79 53,129 0,51 -20,97 -53,130l-1 0c-33,34 -79,54 -130,54 -50,0 -96,-20 -129,-54l-1 0c-33,-33 -53,-79 -53,-130 0,-50 20,-96 53,-129l1 -1c33,-33 79,-53 129,-53zm82 102c-21,-20 -50,-33 -82,-33 -31,0 -60,13 -81,33 -20,21 -33,50 -33,81 0,32 13,61 33,81 21,21 50,34 81,34 32,0 61,-13 82,-34 20,-20 33,-49 33,-81 0,-31 -13,-60 -33,-81z"/>
   </g>
  </g>
 </g>
</svg>
