<?xml version="1.0" encoding="UTF-8"?>
<!DOCTYPE svg PUBLIC "-//W3C//DTD SVG 1.1//EN" "http://www.w3.org/Graphics/SVG/1.1/DTD/svg11.dtd">
<!-- Creator: CorelDRAW X7 -->
<svg xmlns="http://www.w3.org/2000/svg" xml:space="preserve" width="86.6986mm" height="25.654mm" version="1.1" style="shape-rendering:geometricPrecision; text-rendering:geometricPrecision; image-rendering:optimizeQuality; fill-rule:evenodd; clip-rule:evenodd"
viewBox="0 0 8670 2565"
 xmlns:xlink="http://www.w3.org/1999/xlink">
 <defs>
  <style type="text/css">
   <![CDATA[
    .fil0 {fill:#D01C22;fill-rule:nonzero}
   ]]>
  </style>
 </defs>
 <g id="Layer_x0020_1">
  <metadata id="CorelCorpID_0Corel-Layer"/>
  <g id="_820819520">
   <path class="fil0" d="M2288 1936l0 -41 0 -387 0 -206 0 -630 -518 259 -477 238c-3,-23 -13,-45 -29,-62l476 -237 440 -220 -892 0c4,-12 6,-25 6,-38 0,-11 -1,-21 -4,-31l901 0 -452 -226 -561 -280 -561 280 -451 226 901 0c-3,10 -4,20 -4,31 0,13 2,26 6,38l-892 0 440 220 475 237c-15,17 -25,39 -28,63l-478 -239 -517 -258 0 629 0 206 0 387 0 41 33 17 0 0 0 0 133 66 60 30 322 161 527 263 0 -1178c11,4 22,6 35,6 12,0 23,-2 34,-6l0 1178 527 -263 453 -226 0 0 62 -31 0 0 0 0 33 -17zm-1075 -1213l0 351c-11,-3 -22,-5 -34,-5 -13,0 -24,2 -35,5l0 -351c11,3 22,5 35,5 12,0 23,-2 34,-5zm-19 -717l576 288 274 136 62 31 239 120 0 0 13 6 0 51 0 557 0 168 0 84 0 455 0 77 -11 5 -59 29 -95 48 -422 211 -577 288 -15 8 -16 -8 -576 -288 -292 -146 -87 -43 -20 -11 -119 -59 -69 -34 0 -45 0 -559 0 -308 0 -89 0 -340 0 -51 12 -6 235 -118 61 -30 278 -139 577 -288 15 -8 16 8zm73 681l315 494 315 494c-23,6 -43,19 -58,37l-315 -494 -315 -494c23,-6 43,-19 58,-37zm550 1134l-638 0 -639 0c4,-11 6,-22 6,-35 0,-12 -2,-23 -6,-34l639 0 638 0c-4,11 -6,22 -6,34 0,13 2,24 6,35zm-1357 -146l315 -494 315 -494c15,18 35,31 58,37l-315 494 -315 494c-15,-18 -35,-31 -58,-37zm-30 -31c39,0 75,16 101,42l0 0c26,26 42,61 42,100 0,40 -16,75 -42,101l0 0c-26,26 -62,42 -101,42 -40,0 -75,-16 -101,-42l0 0c-26,-26 -42,-61 -42,-101 0,-39 16,-74 42,-100l0 0c26,-26 61,-42 101,-42zm63 80c-16,-17 -39,-26 -63,-26 -25,0 -47,9 -63,26 -16,16 -26,38 -26,62 0,25 10,47 26,63 16,16 38,26 63,26 24,0 47,-10 63,-26 16,-16 26,-38 26,-63 0,-24 -10,-46 -26,-62zm686 -682c39,0 75,16 100,42l1 0c25,26 41,61 41,101 0,39 -16,75 -41,101l-1 0c-25,25 -61,41 -100,41 -40,0 -76,-16 -101,-41l0 0c-26,-26 -42,-62 -42,-101 0,-40 16,-75 42,-101l0 0c25,-26 61,-42 101,-42zm63 80c-17,-16 -39,-26 -63,-26 -25,0 -47,10 -63,26 -17,16 -26,38 -26,63 0,24 9,47 26,63 16,16 38,26 63,26 24,0 46,-10 63,-26 16,-16 26,-39 26,-63 0,-25 -10,-47 -26,-63zm685 522c40,0 75,16 101,42l0 0c26,26 42,61 42,100 0,40 -16,75 -42,101l0 0c-26,26 -61,42 -101,42 -39,0 -75,-16 -101,-42l0 0c-25,-26 -41,-61 -41,-101 0,-39 16,-74 41,-100l0 0c26,-26 62,-42 101,-42zm63 80c-16,-17 -38,-26 -63,-26 -24,0 -47,9 -63,26 -16,16 -26,38 -26,62 0,25 10,47 26,63 16,16 39,26 63,26 25,0 47,-10 63,-26 16,-16 26,-38 26,-63 0,-24 -10,-46 -26,-62zm-811 -1254c39,0 75,16 100,42l1 0c25,25 41,61 41,100 0,40 -16,75 -41,101l-1 0c-25,26 -61,42 -100,42 -40,0 -76,-16 -101,-42l0 0c-26,-26 -42,-61 -42,-101 0,-39 16,-75 42,-100l0 0c25,-26 61,-42 101,-42zm63 79c-17,-16 -39,-26 -63,-26 -25,0 -47,10 -63,26 -17,17 -26,39 -26,63 0,25 9,47 26,63 16,16 38,26 63,26 24,0 46,-10 63,-26 16,-16 26,-38 26,-63 0,-24 -10,-46 -26,-63z"/>
   <path class="fil0" d="M3126 1533l65 -9 0 -481 -63 -10 0 -42 400 0 10 122 -49 0 -24 -76 -184 0 0 213 125 0 11 -64 50 0 0 181 -50 0 -11 -68 -125 0 0 224 211 0 44 -99 49 14 -23 137 -436 0 0 -42zm513 -487l-48 -10 0 -45 215 0 0 45 -71 10 127 360 26 88 22 -90 117 -358 -60 -10 0 -45 177 0 0 45 -50 10 -186 529 -72 0 -197 -529zm533 487l70 -9 0 -481 -70 -10 0 -42 231 0 0 42 -71 10 0 481 72 10 0 41 -232 0 0 -42zm312 1l64 -9 0 -482 -63 -9 0 -43 228 0 0 43 -74 10 0 477 194 0 47 -132 51 8 -26 178 -421 0 0 -41zm500 -1l63 -9 0 -480 -65 -11 0 -42 420 0 8 134 -56 0 -25 -88 -192 0 0 220 134 0 15 -65 47 0 0 183 -47 0 -15 -68 -134 0 0 217 117 9 0 42 -270 0 0 -42zm436 1l49 -9 189 -534 92 0 190 534 49 9 0 41 -211 0 0 -41 63 -9 -36 -113 -226 0 -35 113 66 9 0 41 -189 0 -1 -41zm369 -171l-82 -248 -17 -63 -17 64 -79 247 195 0zm214 -82c0,-45 7,-86 22,-122 14,-36 35,-66 60,-91 26,-26 56,-45 91,-58 34,-14 72,-20 112,-20 17,0 34,1 51,3 18,2 34,4 49,7 15,3 28,5 40,8 12,3 22,5 29,6l-7 140 -57 0 -22 -95c-5,-7 -15,-12 -31,-16 -16,-5 -38,-7 -66,-7 -24,0 -47,5 -67,16 -21,10 -38,25 -53,45 -15,20 -27,44 -35,74 -8,29 -12,63 -12,101 0,33 3,65 10,96 7,31 17,59 32,83 14,24 32,43 54,57 23,15 50,22 81,22 13,0 24,-1 34,-3 10,-1 18,-4 25,-6 7,-3 13,-6 18,-9 4,-3 8,-6 11,-10l34 -78 54 7 -17 115c-10,1 -20,3 -29,6 -9,3 -19,6 -31,10 -11,3 -24,6 -39,9 -15,3 -33,5 -54,5 -46,0 -87,-7 -123,-20 -36,-14 -66,-33 -90,-58 -24,-26 -43,-57 -56,-93 -12,-36 -18,-78 -18,-124zm611 252l100 -9 0 -486 -127 0 -29 163 -56 0 14 -210 486 0 12 210 -55 0 -29 -163 -123 0 0 486 109 9 0 42 -302 0 0 -42zm697 43c-42,0 -79,-7 -110,-21 -32,-14 -58,-34 -80,-59 -21,-26 -37,-57 -48,-92 -11,-36 -16,-76 -16,-119 0,-45 7,-86 20,-122 14,-36 32,-67 56,-93 24,-26 52,-46 84,-59 33,-14 68,-21 106,-21 41,0 78,7 110,20 31,14 57,33 78,58 21,25 37,55 47,90 11,36 16,75 16,118 0,45 -6,87 -20,123 -13,37 -31,68 -55,94 -23,26 -51,47 -83,61 -32,14 -67,22 -105,22zm5 -46c24,0 46,-5 65,-16 20,-10 36,-26 50,-47 14,-21 25,-48 32,-80 8,-31 12,-69 12,-111 0,-38 -4,-71 -11,-101 -7,-30 -17,-55 -31,-76 -13,-21 -30,-37 -50,-48 -19,-11 -42,-16 -67,-16 -24,0 -46,5 -65,15 -20,10 -37,25 -51,46 -14,21 -24,47 -32,78 -7,32 -11,69 -11,111 0,37 3,71 10,102 7,30 18,55 31,77 14,21 30,37 50,49 20,11 42,17 68,17zm321 3l64 -8 0 -479 -60 -10 0 -45 105 0c11,0 21,0 31,0 10,0 19,0 29,0 10,0 20,0 30,0 10,0 20,0 31,0 39,0 72,3 100,9 27,6 49,16 65,28 17,13 29,29 37,48 7,19 11,41 11,66 0,17 -2,35 -7,51 -5,17 -13,33 -23,47 -9,15 -21,28 -36,39 -14,11 -30,19 -49,24 11,7 22,16 33,29 10,13 20,28 29,43 10,16 19,32 28,49 9,17 17,33 25,47 8,14 16,26 23,36 7,10 14,16 21,17l30 9 0 42 -114 0c-5,0 -10,-3 -16,-10 -5,-6 -11,-15 -17,-25 -6,-11 -12,-23 -19,-37 -6,-14 -13,-28 -19,-43 -7,-15 -14,-30 -21,-45 -6,-15 -13,-29 -21,-42 -7,-13 -14,-24 -21,-34 -8,-9 -15,-16 -22,-21 -7,0 -16,0 -25,0 -10,0 -19,0 -28,0 -9,0 -18,0 -25,0 -7,0 -12,0 -15,0l0 207 76 8 0 42 -230 0 0 -42zm154 -259c4,0 11,0 19,0 7,0 16,0 24,0 9,0 18,0 25,0 8,0 15,0 19,0 16,0 31,-3 43,-8 13,-5 24,-13 33,-23 9,-11 16,-24 21,-40 5,-16 7,-34 7,-56 0,-17 -2,-32 -5,-46 -4,-14 -11,-26 -21,-36 -9,-10 -22,-18 -38,-23 -16,-6 -37,-9 -61,-9 -9,0 -18,0 -24,0 -7,0 -13,0 -18,1 -6,0 -10,1 -14,1 -3,1 -7,1 -10,1l0 238zm490 259l84 -9 0 -176 -174 -304 -49 -11 0 -42 210 0 0 42 -59 10 108 209 22 55 25 -55 103 -209 -62 -10 0 -42 181 0 0 42 -51 10 -161 303 0 178 86 9 0 42 -263 0 0 -42z"/>
  </g>
 </g>
</svg>
