<?xml version="1.0" encoding="UTF-8"?>
<!DOCTYPE svg PUBLIC "-//W3C//DTD SVG 1.1//EN" "http://www.w3.org/Graphics/SVG/1.1/DTD/svg11.dtd">
<!-- Creator: CorelDRAW X7 -->
<svg xmlns="http://www.w3.org/2000/svg" xml:space="preserve" width="86.6986mm" height="25.6538mm" version="1.1" style="shape-rendering:geometricPrecision; text-rendering:geometricPrecision; image-rendering:optimizeQuality; fill-rule:evenodd; clip-rule:evenodd"
viewBox="0 0 8670 2565"
 xmlns:xlink="http://www.w3.org/1999/xlink">
 <defs>
  <style type="text/css">
   <![CDATA[
    .fil0 {fill:#FEFEFE;fill-rule:nonzero}
   ]]>
  </style>
 </defs>
 <g id="Layer_x0020_1">
  <metadata id="CorelCorpID_0Corel-Layer"/>
  <g id="_816451200">
   <path class="fil0" d="M2289 1936l0 -41 0 -387 0 -206 0 -629 -518 258 -477 238c-3,-23 -14,-45 -29,-62l475 -237 440 -220 -891 0c4,-12 6,-24 6,-38 0,-11 -2,-21 -5,-31l901 0 -451 -226 -561 -280 -561 280 -452 226 901 0c-2,10 -4,20 -4,31 0,14 2,26 6,38l-892 0 441 220 475 237c-16,17 -26,39 -29,63l-477 -239 -518 -258 0 629 0 206 0 387 0 41 34 17 0 0 0 0 133 66 59 30 323 161 526 263 0 -1178c11,4 23,6 35,6 12,0 24,-2 34,-6l0 1178 527 -263 453 -226 0 0 62 -31 0 0 0 0 34 -17zm-1076 -1213l0 351c-10,-3 -22,-5 -34,-5 -12,0 -24,2 -35,5l0 -351c11,3 23,5 35,5 12,0 24,-2 34,-5zm-19 -717l577 288 273 137 62 30 239 120 0 0 13 6 0 51 0 557 0 168 0 84 0 455 0 76 -11 6 -58 29 -96 48 -422 211 -577 288 -15 7 -16 -7 -576 -288 -292 -146 -86 -43 -21 -11 -119 -59 -69 -35 0 -44 0 -559 0 -308 0 -89 0 -340 0 -51 12 -6 235 -118 62 -30 278 -139 576 -288 16 -8 15 8zm73 681l315 494 315 494c-23,6 -43,19 -58,37l-315 -494 -315 -494c23,-6 43,-19 58,-37zm550 1134l-638 0 -638 0c3,-11 5,-23 5,-35 0,-12 -2,-23 -5,-34l638 0 638 0c-3,11 -5,22 -5,34 0,12 2,24 5,35zm-1356 -146l314 -494 315 -494c15,18 35,31 58,37l-314 494 -315 494c-15,-18 -35,-31 -58,-37zm-31 -31c40,0 75,16 101,42l0 0c26,25 42,61 42,100 0,40 -16,75 -42,101l0 0c-26,26 -61,42 -101,42 -39,0 -75,-16 -101,-42l0 0c-26,-26 -42,-61 -42,-101 0,-39 16,-75 42,-100l0 0c26,-26 62,-42 101,-42zm63 79c-16,-16 -38,-26 -63,-26 -24,0 -47,10 -63,26 -16,17 -26,39 -26,63 0,25 10,47 26,63 16,16 39,26 63,26 25,0 47,-10 63,-26 16,-16 26,-38 26,-63 0,-24 -10,-46 -26,-63zm686 -681c39,0 75,16 101,42l0 0c26,26 42,61 42,101 0,39 -16,75 -42,101l0 0c-26,25 -62,41 -101,41 -39,0 -75,-16 -101,-41l0 0c-26,-26 -42,-62 -42,-101 0,-40 16,-75 42,-101l0 0c26,-26 62,-42 101,-42zm63 80c-16,-16 -38,-26 -63,-26 -25,0 -47,10 -63,26 -16,16 -26,38 -26,63 0,24 10,47 26,63 16,16 38,26 63,26 25,0 47,-10 63,-26 16,-16 26,-39 26,-63 0,-25 -10,-47 -26,-63zm686 522c39,0 75,16 100,42l1 0c25,25 41,61 41,100 0,40 -16,75 -41,101l-1 0c-25,26 -61,42 -100,42 -40,0 -75,-16 -101,-42l0 0c-26,-26 -42,-61 -42,-101 0,-39 16,-75 42,-100l0 0c26,-26 61,-42 101,-42zm63 79c-16,-16 -39,-26 -63,-26 -25,0 -47,10 -63,26 -16,17 -26,39 -26,63 0,25 10,47 26,63 16,16 38,26 63,26 24,0 47,-10 63,-26 16,-16 26,-38 26,-63 0,-24 -10,-46 -26,-63zm-812 -1253c39,0 75,16 101,42l0 0c26,26 42,61 42,100 0,40 -16,75 -42,101l0 0c-26,26 -62,42 -101,42 -39,0 -75,-16 -101,-42l0 0c-26,-26 -42,-61 -42,-101 0,-39 16,-74 42,-100l0 0c26,-26 62,-42 101,-42zm63 80c-16,-16 -38,-26 -63,-26 -25,0 -47,10 -63,26 -16,16 -26,38 -26,62 0,25 10,47 26,63 16,16 38,26 63,26 25,0 47,-10 63,-26 16,-16 26,-38 26,-63 0,-24 -10,-46 -26,-62z"/>
   <path class="fil0" d="M3126 1533l65 -9 0 -481 -63 -10 0 -42 400 0 10 122 -49 0 -24 -76 -184 0 0 213 125 0 12 -64 49 0 0 181 -49 0 -12 -68 -125 0 0 224 211 0 44 -99 49 14 -23 137 -436 0 0 -42zm513 -487l-48 -10 0 -45 215 0 0 45 -71 10 127 360 26 88 22 -90 117 -358 -60 -10 0 -45 177 0 0 45 -50 10 -185 529 -73 0 -197 -529zm533 487l70 -9 0 -481 -70 -10 0 -42 231 0 0 42 -71 10 0 481 72 10 0 41 -232 0 0 -42zm312 1l64 -9 0 -482 -63 -9 0 -43 228 0 0 43 -74 10 0 477 194 0 47 -132 51 8 -26 178 -421 0 0 -41zm500 -1l63 -9 0 -480 -65 -11 0 -42 420 0 8 134 -56 0 -25 -88 -192 0 0 220 134 0 15 -65 47 0 0 183 -47 0 -15 -68 -134 0 0 217 117 9 0 42 -270 0 0 -42zm436 1l49 -10 189 -533 92 0 190 533 49 10 0 41 -211 0 0 -41 63 -9 -37 -113 -225 0 -35 113 65 9 0 41 -189 0 0 -41zm369 -171l-82 -248 -17 -63 -17 64 -79 247 195 0zm213 -82c0,-45 8,-86 23,-122 14,-36 34,-66 60,-91 26,-25 56,-45 90,-58 35,-13 72,-20 112,-20 18,0 35,1 52,3 17,2 33,4 48,7 15,3 29,5 41,8 12,3 22,5 29,6l-7 140 -57 0 -22 -95c-5,-7 -16,-12 -31,-16 -16,-5 -38,-7 -66,-7 -24,0 -47,5 -67,16 -21,10 -38,25 -53,45 -15,20 -27,44 -35,74 -8,29 -13,63 -13,101 0,33 4,65 11,96 6,31 17,59 31,83 15,24 33,43 55,57 23,15 49,22 81,22 13,0 24,-1 34,-3 10,-1 18,-4 25,-6 7,-3 13,-6 18,-9 4,-3 8,-6 11,-10l34 -78 54 7 -17 115c-10,1 -20,3 -29,6 -9,3 -20,6 -31,10 -11,3 -24,6 -39,9 -15,3 -33,5 -54,5 -46,0 -87,-7 -123,-20 -36,-14 -66,-33 -90,-59 -25,-25 -43,-56 -56,-92 -12,-36 -19,-78 -19,-124zm612 252l100 -9 0 -486 -128 0 -28 163 -56 0 13 -210 486 0 13 210 -55 0 -29 -163 -123 0 0 486 108 9 0 42 -301 0 0 -42zm696 43c-41,0 -78,-7 -109,-21 -32,-14 -59,-34 -80,-59 -21,-26 -38,-57 -48,-92 -11,-36 -16,-76 -16,-119 0,-45 6,-86 20,-122 13,-36 32,-67 56,-93 23,-26 52,-46 84,-59 32,-14 68,-21 105,-21 42,0 79,7 110,20 32,14 58,33 79,58 21,25 37,55 47,90 11,36 16,75 16,118 0,45 -7,87 -20,123 -13,37 -32,68 -55,94 -24,26 -51,47 -84,61 -32,14 -67,22 -105,22zm5 -46c25,0 46,-5 66,-16 19,-11 36,-26 50,-47 14,-21 25,-48 32,-80 8,-31 11,-69 11,-111 0,-38 -3,-71 -10,-101 -7,-30 -18,-55 -31,-76 -14,-21 -30,-37 -50,-48 -20,-11 -42,-16 -67,-16 -24,0 -46,5 -66,15 -19,10 -36,25 -50,46 -14,21 -25,47 -32,78 -8,32 -12,69 -12,111 0,37 4,71 11,101 7,31 17,56 31,78 14,21 30,37 50,49 20,11 42,17 67,17zm321 3l65 -9 0 -478 -61 -10 0 -45 106 0c10,0 20,0 30,0 10,0 20,0 30,0 9,0 19,0 29,0 10,0 21,0 32,0 39,0 72,3 99,9 27,6 49,16 66,28 17,13 29,29 37,48 7,19 11,41 11,66 0,17 -3,35 -8,51 -5,17 -12,33 -22,47 -10,15 -22,27 -36,39 -14,11 -31,19 -49,24 11,7 22,16 32,29 10,13 20,28 30,43 10,16 19,32 28,49 8,17 17,33 25,47 8,14 15,26 23,36 7,10 14,16 21,17l30 9 0 42 -114 0c-5,0 -11,-3 -16,-10 -6,-6 -11,-15 -17,-25 -6,-11 -13,-23 -19,-37 -6,-14 -13,-28 -20,-43 -6,-15 -13,-30 -20,-45 -7,-15 -14,-29 -21,-42 -7,-13 -14,-24 -22,-34 -7,-9 -14,-16 -21,-21 -8,0 -16,0 -26,0 -9,0 -18,0 -28,0 -9,0 -17,0 -24,0 -7,0 -13,0 -15,0l0 206 75 9 0 42 -230 0 0 -42zm155 -259c4,0 10,0 18,0 8,0 16,0 25,0 9,0 17,0 25,0 8,0 14,0 18,0 17,0 31,-3 44,-8 13,-5 24,-13 33,-23 9,-11 16,-24 21,-40 4,-16 7,-34 7,-56 0,-17 -2,-32 -6,-46 -4,-14 -10,-26 -20,-36 -10,-10 -22,-18 -39,-23 -16,-6 -36,-9 -60,-9 -10,0 -18,0 -25,0 -7,0 -13,0 -18,1 -5,0 -9,1 -13,1 -4,1 -7,1 -10,1l0 238zm489 259l84 -9 0 -176 -173 -304 -49 -11 0 -42 210 0 0 42 -60 10 109 209 22 55 25 -55 102 -209 -62 -10 0 -42 182 0 0 42 -51 10 -161 303 0 178 86 9 0 42 -264 0 0 -42z"/>
  </g>
 </g>
</svg>
